<?xml version="1.0" encoding="UTF-8"?>
<svg width="21px" height="21px" viewBox="0 0 21 21" version="1.1" xmlns="http://www.w3.org/2000/svg" xmlns:xlink="http://www.w3.org/1999/xlink">
    <title>E7A7C4EE-FE00-44A6-85BC-A7A85D761A17</title>
    <g id="Page-1" stroke="none" stroke-width="1" fill="none" fill-rule="evenodd">
        <g id="CEJ_cart_return_03_01" transform="translate(-25.000000, -609.000000)">
            <rect fill="#FFFFFF" x="0" y="0" width="360" height="720"></rect>
            <g id="m-/-cart-line-items" transform="translate(9.000000, 101.000000)"></g>
            <g id="Group-9" transform="translate(25.000000, 609.000000)" fill="#000000" fill-rule="nonzero">
                <g id="*Icon-/-Regular-/-Shopping-/-Return_order">
                    <path d="M9.93826094,0.645667969 C10.1387526,0.544401302 10.3754498,0.537459635 10.5809468,0.625554376 L10.6244797,0.645886719 L19.9340422,5.35010547 L19.9537297,5.36388672 L19.9537297,5.36388672 C19.9616047,5.36826172 19.9703547,5.37023047 19.9780109,5.37504297 C19.9950734,5.38554297 20.0081984,5.40019922 20.0235109,5.41244922 C20.0396984,5.42513672 20.0563234,5.43694922 20.0707609,5.45116797 C20.0846151,5.46502214 20.0968165,5.47994575 20.1085318,5.49535547 L20.1258859,5.51876172 C20.1370422,5.53385547 20.1495109,5.54763672 20.1591359,5.56404297 C20.1757609,5.59291797 20.1873547,5.62398047 20.1987297,5.65548047 L20.2149172,5.69616797 L20.2149172,5.69616797 C20.2232297,5.72679297 20.2291116,5.75809852 20.2321093,5.79001982 L20.2343859,5.83835547 L20.2343859,13.8008555 C19.9364882,13.5683839 19.6051452,13.3785776 19.2484102,13.238668 L19.1406359,13.1981992 L19.1406359,6.71029297 L10.8281359,10.7304805 L10.8281359,18.9990117 L11.9568859,18.4276367 L11.9568859,19.6535117 L10.5282297,20.376918 C10.5210839,20.3804909 10.5137679,20.3835291 10.5063547,20.3862756 L10.4612922,20.4011992 C10.4470734,20.4062305 10.4332922,20.4132305 10.4186359,20.4169492 C10.3735734,20.428543 10.3274172,20.4357617 10.2812609,20.4357617 C10.2348859,20.4357617 10.1889484,20.428543 10.1436672,20.4169492 C10.1290109,20.4130117 10.1154484,20.4062305 10.1010109,20.4011992 L10.0561591,20.386227 L10.0561591,20.386227 L10.0342922,20.376918 L0.745073438,15.6742305 C0.501570148,15.551339 0.345237219,15.3114351 0.329455645,15.0410071 L0.328135938,14.995668 L0.328135938,5.83835547 C0.328135938,5.78957422 0.335135938,5.74210547 0.347604688,5.69616797 C0.351323438,5.68194922 0.358760938,5.66948047 0.363792188,5.65569922 C0.374948438,5.62398047 0.386760938,5.59291797 0.403385938,5.56404297 L0.419327344,5.54091016 L0.419327344,5.54091016 L0.436417188,5.51876172 C0.453698438,5.49513672 0.470760938,5.47194922 0.491760938,5.45116797 C0.506198438,5.43694922 0.522604688,5.42513672 0.538792188,5.41244922 L0.568461169,5.38668533 C0.573476215,5.38250477 0.578677604,5.37854297 0.584292188,5.37504297 L0.608792188,5.36388672 L0.608792188,5.36388672 L0.628260938,5.35010547 L9.93826094,0.645667969 Z M14.2830516,12.3786523 L14.9032078,12.9959648 L13.8468641,14.0566836 L17.8132391,14.0569023 C18.2923016,14.0569023 18.7435828,14.1772148 19.1406141,14.3874336 C19.5531766,14.6055273 19.9062391,14.9214023 20.1691766,15.3048711 C20.4857078,15.7666523 20.6718641,16.3251211 20.6718641,16.9269023 C20.6718641,18.4598897 19.4576816,19.7585387 18.0060573,19.7958587 L17.9418641,19.7966836 L13.0506141,19.7966836 L13.0506141,18.7029336 L17.9418641,18.7029336 C18.8133641,18.7029336 19.5781141,17.8729961 19.5781141,16.9269023 C19.5781141,16.5639961 19.4689578,16.2264648 19.2825828,15.9449336 C19.0522391,15.5969023 18.7031141,15.3363711 18.2940516,15.2195586 C18.1666297,15.1831003 18.0335872,15.1595543 17.8961899,15.1527183 L17.8132391,15.1506523 L13.8486141,15.1504336 L14.9036453,16.2139961 L14.2823953,16.8304336 L12.0706141,14.6007148 L14.2830516,12.3786523 Z M1.42188594,6.71029297 L1.42188594,14.790918 L9.73438594,18.9990117 L9.73438594,10.7304805 L1.42188594,6.71029297 Z M5.58338594,4.07173047 L2.10876094,5.82741797 L10.2812609,9.78001172 L13.8337609,8.06194922 L5.58338594,4.07173047 Z M10.2812609,1.69785547 L6.81188594,3.45113672 L15.0898234,7.45426172 L18.4535422,5.82741797 L10.2812609,1.69785547 Z" id="Icon-/-Regular-/-Shopping-/-Return_order"></path>
                </g>
            </g>
        </g>
    </g>
</svg>