<?xml version="1.0" encoding="UTF-8"?>
<svg width="38px" height="38px" viewBox="0 0 38 38" version="1.1" xmlns="http://www.w3.org/2000/svg" xmlns:xlink="http://www.w3.org/1999/xlink">
    <title>*Icon / Regular / Shopping / Finance</title>
    <g id="Buyer-confidence-footer-comps" stroke="none" stroke-width="1" fill="none" fill-rule="evenodd">
        <g id="Group" transform="translate(-1.000000, -1.023018)" fill="#000000" fill-rule="nonzero">
            <g id="*Icon-/-Regular-/-Shopping-/-Finance">
                <path d="M36.0416667,27.7894737 L28.5416667,27.7894737 C26.76125,27.7894737 25.3125,26.3254737 25.3125,24.5263158 C25.3125,22.7271579 26.76125,21.2631579 28.5416667,21.2631579 L36.0416667,21.2631579 L36.0416667,27.7894737 Z M6.88958333,36.4210526 C5.27333333,36.4210526 3.95833333,34.688 3.95833333,32.5574737 L3.95833333,11.5709474 C4.81208333,12.2345263 5.86541667,12.6315789 7.00791667,12.6315789 L33.7683333,12.6315789 L36.0416667,12.6315789 L36.0416667,19.1578947 L28.5416667,19.1578947 C25.6120833,19.1578947 23.2291667,21.5663158 23.2291667,24.5263158 C23.2291667,27.4863158 25.6120833,29.8947368 28.5416667,29.8947368 L36.0416667,29.8947368 L36.0416667,36.4210526 L6.88958333,36.4210526 Z M7.00791667,4 L33.1433333,4 L33.1433333,10.5263158 L7.00791667,10.5263158 C5.32625,10.5263158 3.95833333,9.06231579 3.95833333,7.26315789 C3.95833333,5.464 5.32625,4 7.00791667,4 L7.00791667,4 Z M36.6666667,10.5263158 L35.2266667,10.5263158 L35.2266667,3.36842105 C35.2266667,2.55578947 34.5725,1.89473684 33.7683333,1.89473684 L7.00791667,1.89473684 C4.1775,1.89473684 1.875,4.30315789 1.875,7.26315789 L1.875,32.5574737 C1.875,35.8488421 4.12458333,38.5263158 6.88958333,38.5263158 L36.6666667,38.5263158 C37.4708333,38.5263158 38.125,37.8652632 38.125,37.0526316 L38.125,28.4210526 L38.125,20.6315789 L38.125,12 C38.125,11.1873684 37.4708333,10.5263158 36.6666667,10.5263158 L36.6666667,10.5263158 Z" id="Icon-/-Regular-/-Shopping-/-Finance"></path>
            </g>
        </g>
    </g>
</svg>