<?xml version="1.0" encoding="UTF-8"?>
<svg width="40px" height="39px" viewBox="0 0 40 39" version="1.1" xmlns="http://www.w3.org/2000/svg" xmlns:xlink="http://www.w3.org/1999/xlink">
    <title>*Icon / Regular / Shopping / Return_order</title>
    <g id="Buyer-confidence-footer-comps" stroke="none" stroke-width="1" fill="none" fill-rule="evenodd">
        <g id="Group" transform="translate(0.000000, -0.570000)" fill="#000000" fill-rule="nonzero">
            <g id="*Icon-/-Regular-/-Shopping-/-Return_order">
                <path d="M18.9300208,1.22984375 C19.3119097,1.03695486 19.7627616,1.02373264 20.1541843,1.19153215 L20.2371042,1.23026042 L37.9696042,10.1906771 L38.0071042,10.2169271 L38.0071042,10.2169271 C38.0221042,10.2252604 38.0387708,10.2290104 38.0533542,10.2381771 C38.0858542,10.2581771 38.1108542,10.2860937 38.1400208,10.3094271 C38.1708542,10.3335937 38.2025208,10.3560937 38.2300208,10.3831771 C38.2564097,10.409566 38.2796505,10.4379919 38.3019653,10.4673437 L38.3350208,10.5119271 C38.3562708,10.5406771 38.3800208,10.5669271 38.3983542,10.5981771 C38.4300208,10.6531771 38.4521042,10.7123437 38.4737708,10.7723437 L38.5046042,10.8498437 L38.5046042,10.8498437 C38.5204375,10.9081771 38.5316412,10.9678067 38.5373511,11.0286092 L38.5416875,11.1206771 L38.5416875,26.2873437 C37.9742633,25.8445407 37.3431338,25.4830049 36.6636384,25.2165104 L36.4583542,25.1394271 L36.4583542,12.7815104 L20.6250208,20.4390104 L20.6250208,36.1885937 L22.7750208,35.1002604 L22.7750208,37.4352604 L20.0537708,38.8131771 C20.0401597,38.8199826 20.0262245,38.8257697 20.0121042,38.8310012 L19.9262708,38.8594271 C19.8991875,38.8690104 19.8729375,38.8823437 19.8450208,38.8894271 C19.7591875,38.9115104 19.6712708,38.9252604 19.5833542,38.9252604 C19.4950208,38.9252604 19.4075208,38.9115104 19.3212708,38.8894271 C19.2933542,38.8819271 19.2675208,38.8690104 19.2400208,38.8594271 L19.1545887,38.8309086 L19.1545887,38.8309086 L19.1129375,38.8131771 L1.4191875,29.8556771 C0.955371711,29.6215981 0.657594702,29.1646383 0.627534562,28.6495373 L0.625020833,28.5631771 L0.625020833,11.1206771 C0.625020833,11.0277604 0.638354167,10.9373437 0.662104167,10.8498437 C0.6691875,10.8227604 0.683354167,10.7990104 0.6929375,10.7727604 C0.7141875,10.7123437 0.7366875,10.6531771 0.768354167,10.5981771 L0.79871875,10.5541146 L0.79871875,10.5541146 L0.831270833,10.5119271 C0.8641875,10.4669271 0.8966875,10.4227604 0.9366875,10.3831771 C0.9641875,10.3560937 0.9954375,10.3335937 1.02627083,10.3094271 L1.08278318,10.260353 C1.09233565,10.25239 1.10224306,10.2448437 1.1129375,10.2381771 L1.15960417,10.2169271 L1.15960417,10.2169271 L1.1966875,10.1906771 L18.9300208,1.22984375 Z M27.2058125,23.5783854 L28.3870625,24.7542188 L26.3749792,26.7746354 L33.9299792,26.7750521 C34.8424792,26.7750521 35.7020625,27.0042187 36.4583125,27.4046354 C37.2441458,27.8200521 37.9166458,28.4217188 38.4174792,29.1521354 C39.0203958,30.0317188 39.3749792,31.0954688 39.3749792,32.2417188 C39.3749792,35.1616946 37.0622507,37.6353118 34.2972519,37.7063976 L34.1749792,37.7079688 L24.8583125,37.7079688 L24.8583125,35.6246354 L34.1749792,35.6246354 C35.8349792,35.6246354 37.2916458,34.0438021 37.2916458,32.2417188 C37.2916458,31.5504688 37.0837292,30.9075521 36.7287292,30.3713021 C36.2899792,29.7083854 35.6249792,29.2121354 34.8458125,28.9896354 C34.6031042,28.920191 34.3496898,28.8753414 34.0879807,28.8623206 L33.9299792,28.8583854 L26.3783125,28.8579687 L28.3878958,30.8838021 L27.2045625,32.0579688 L22.9916458,27.8108854 L27.2058125,23.5783854 Z M2.70835417,12.7815104 L2.70835417,28.1731771 L18.5416875,36.1885937 L18.5416875,20.4390104 L2.70835417,12.7815104 Z M10.6350208,7.75567708 L4.0166875,11.0998437 L19.5833542,18.6285938 L26.3500208,15.3560937 L10.6350208,7.75567708 Z M19.5833542,3.23401042 L12.9750208,6.57359375 L28.7425208,14.1985937 L35.1496042,11.0998437 L19.5833542,3.23401042 Z" id="Icon-/-Regular-/-Shopping-/-Return_order"></path>
            </g>
        </g>
    </g>
</svg>