<?xml version="1.0" encoding="UTF-8"?>
<svg width="40px" height="30px" viewBox="0 0 40 30" version="1.1" xmlns="http://www.w3.org/2000/svg" xmlns:xlink="http://www.w3.org/1999/xlink">
    <title>shipping copy</title>
    <g id="Buyer-confidence-footer-comps" stroke="none" stroke-width="1" fill="none" fill-rule="evenodd">
        <g id="MO-icon-v2_IM" transform="translate(-35.000000, -432.000000)" fill="#000000" fill-rule="nonzero">
            <g id="Get-more-banner-IM" transform="translate(0.000000, 216.000000)">
                <g id="Group-4-Copy" transform="translate(35.000000, 120.380000)">
                    <g id="Group-2-Copy" transform="translate(0.000000, 95.620000)">
                        <path d="M37.6925054,22.7762996 C37.5687825,22.9256353 37.3647483,23.0081172 37.1168684,23.0081172 L33.9417482,23.0081172 C33.301428,21.0576367 31.4655538,19.6437227 29.3036591,19.6437227 C28.2517974,19.6437227 27.2789447,19.9814645 26.4810406,20.5488534 L26.4810406,6.94584671 L33.6083476,6.94584671 C34.28687,6.94584671 34.9949122,7.53060018 35.1234104,8.19740147 L35.2584203,8.8993661 L31.0288337,8.8993661 C30.3164503,8.8993661 29.7369062,9.48368546 29.7369062,10.2017124 L29.7369062,14.976982 C29.7369062,15.6950089 30.3164503,16.2793282 31.0288337,16.2793282 L36.6784118,16.2793282 L37.811453,22.1668016 C37.8583375,22.4103403 37.8162283,22.6265298 37.6925054,22.7762996 L37.6925054,22.7762996 Z M32.1575338,25.1786943 C31.8601648,26.4819088 30.6945649,27.4578003 29.3036591,27.4578003 C27.9114509,27.4578003 26.745851,26.4819088 26.4480478,25.1786943 C26.4002951,24.9685825 26.3725117,24.7510906 26.3725117,24.526653 C26.3725117,24.2566332 26.4120162,23.996598 26.4810406,23.7478499 C26.553972,23.4843419 26.6625008,23.236462 26.8018519,23.0081172 C27.3167128,22.1641969 28.2439833,21.5972421 29.3036591,21.5972421 C30.3624666,21.5972421 31.289303,22.1641969 31.8041639,23.0081172 C32.0741837,23.4517832 32.2330699,23.9705511 32.2330699,24.526653 C32.2330699,24.7510906 32.2052865,24.9685825 32.1575338,25.1786943 L32.1575338,25.1786943 Z M36.344577,14.5428666 L31.4733679,14.5428666 L31.4733679,10.6358278 L35.5926891,10.6358278 L36.344577,14.5428666 Z M24.3104635,23.0081172 L13.9720048,23.0081172 C13.3312504,21.0576367 11.4958104,19.6437227 9.33348152,19.6437227 C7.17115262,19.6437227 5.33571262,21.0576367 4.69495826,23.0081172 L2.1705771,23.0081172 L2.1705771,2.1705771 L24.3104635,2.1705771 L24.3104635,23.0081172 Z M12.1882245,25.1786943 C11.8908555,26.4819088 10.7252556,27.4578003 9.33348152,27.4578003 C7.94170749,27.4578003 6.77567347,26.4819088 6.47873852,25.1786943 C6.43098583,24.9690166 6.40320244,24.7515248 6.40320244,24.5275212 C6.40320244,23.9709852 6.56208868,23.4517832 6.83254259,23.0081172 C7.34740348,22.1637627 8.2742399,21.5972421 9.33348152,21.5972421 C10.3927231,21.5972421 11.3195596,22.1637627 11.8344205,23.0081172 C12.1048744,23.4517832 12.2637606,23.9709852 12.2637606,24.5275212 C12.2637606,24.7515248 12.2359772,24.9690166 12.1882245,25.1786943 L12.1882245,25.1786943 Z M39.9429598,21.7565625 L37.2549171,7.7871624 C36.9297646,6.09845341 35.3278787,4.77526962 33.6083476,4.77526962 L26.4810406,4.77526962 L26.4810406,1.51940397 C26.4810406,0.681561209 25.7994794,0 24.9616366,0 L1.51940397,0 C0.681561209,0 0,0.681561209 0,1.51940397 L0,23.6592904 C0,24.4971331 0.681561209,25.1786943 1.51940397,25.1786943 L4.49830398,25.1786943 C4.81824704,27.5641586 6.86162832,29.4113197 9.33348152,29.4113197 C11.8049006,29.4113197 13.848716,27.5641586 14.1686591,25.1786943 L24.4676133,25.1786943 C24.7879905,27.5641586 26.8318059,29.4113197 29.3036591,29.4113197 C31.774644,29.4113197 33.8175912,27.5641586 34.1379684,25.1786943 L37.1168684,25.1786943 C38.010712,25.1786943 38.8307561,24.8070915 39.3660204,24.1585231 C39.9017188,23.5099547 40.1118307,22.634778 39.9429598,21.7565625 L39.9429598,21.7565625 Z" id="shipping-copy"></path>
                    </g>
                </g>
            </g>
        </g>
    </g>
</svg>