<?xml version="1.0" encoding="UTF-8"?>
<svg width="39px" height="39px" viewBox="0 0 39 39" version="1.1" xmlns="http://www.w3.org/2000/svg" xmlns:xlink="http://www.w3.org/1999/xlink">
    <title>C29B103C-D077-4808-984C-DE036F27C1A3</title>
    <g id="Page-1" stroke="none" stroke-width="1" fill="none" fill-rule="evenodd">
        <g id="klarna_01_01b_affirm-example" transform="translate(-885.000000, -1131.000000)">
            <rect fill="#FFFFFF" x="0" y="0" width="1440" height="1808"></rect>
            <g id="two-bottom-section-on-config" transform="translate(851.000000, 1010.104266)">
                <g id="klarna-section-on-config" transform="translate(1.000000, 0.000000)">
                    <path d="M10,0 L226.675779,0 L226.675779,0 L554,0 C559.522847,-6.30067353e-14 564,4.4771525 564,10 L564,187 C564,192.522847 559.522847,197 554,197 L10,197 C4.4771525,197 6.76353751e-16,192.522847 0,187 L0,10 C-2.45271059e-15,4.4771525 4.4771525,1.01453063e-15 10,0 Z" id="Rectangle-Copy-2" fill="#F7F7F7"></path>
                    <g id="Pay-in-4-message-in-config" transform="translate(33.000000, 120.895734)" fill="#000000" fill-rule="nonzero">
                        <g id="Icon">
                            <path d="M10.0698138,4.46875 L10.06925,6.71575 L25.67925,6.71575 L25.6801862,4.46875 L28.6535904,4.46875 L28.65325,6.71575 L33.4853723,6.71631494 C34.511726,6.71631494 35.34375,7.55487252 35.34375,8.58928571 L35.34375,15.1822107 L32.3703457,15.1822107 L32.3703457,9.71306818 L28.65325,9.71275 L28.6535904,11.9606331 L25.6801862,11.9606331 L25.67925,9.71275 L10.06925,9.71275 L10.0698138,11.9606331 L7.09640957,11.9606331 L7.09625,9.71275 L3.37965426,9.71306818 L3.37965426,30.3157468 L15.884463,30.3157468 L15.884463,33.3125 L2.26462766,33.3125 C1.23827402,33.3125 0.40625,32.4739424 0.40625,31.4395292 L0.40625,8.58928571 C0.40625,7.55487252 1.23827402,6.71631494 2.26462766,6.71631494 L7.09625,6.71575 L7.09640957,4.46875 L10.0698138,4.46875 Z M14.625,21.53125 C15.5224627,21.53125 16.25,22.2587873 16.25,23.15625 C16.25,24.0537127 15.5224627,24.78125 14.625,24.78125 C13.7275373,24.78125 13,24.0537127 13,23.15625 C13,22.2587873 13.7275373,21.53125 14.625,21.53125 Z M7.71875,21.53125 C8.61621273,21.53125 9.34375,22.2587873 9.34375,23.15625 C9.34375,24.0537127 8.61621273,24.78125 7.71875,24.78125 C6.82128727,24.78125 6.09375,24.0537127 6.09375,23.15625 C6.09375,22.2587873 6.82128727,21.53125 7.71875,21.53125 Z M21.125,15.4375 C22.0224627,15.4375 22.75,16.1650373 22.75,17.0625 C22.75,17.9599627 22.0224627,18.6875 21.125,18.6875 C20.2275373,18.6875 19.5,17.9599627 19.5,17.0625 C19.5,16.1650373 20.2275373,15.4375 21.125,15.4375 Z M14.625,15.4375 C15.5224627,15.4375 16.25,16.1650373 16.25,17.0625 C16.25,17.9599627 15.5224627,18.6875 14.625,18.6875 C13.7275373,18.6875 13,17.9599627 13,17.0625 C13,16.1650373 13.7275373,15.4375 14.625,15.4375 Z" id="Icon-/-Bold-/-Notification-/-Calendar_outline"></path>
                            <path d="M29.046875,17.875 C34.5438342,17.875 39,22.3311658 39,27.828125 C39,33.3250842 34.5438342,37.78125 29.046875,37.78125 C23.5499158,37.78125 19.09375,33.3250842 19.09375,27.828125 C19.09375,22.3311658 23.5499158,17.875 29.046875,17.875 Z M29.046875,20.3125 C24.8961099,20.3125 21.53125,23.6773599 21.53125,27.828125 C21.53125,31.9788901 24.8961099,35.34375 29.046875,35.34375 C33.1976401,35.34375 36.5625,31.9788901 36.5625,27.828125 C36.5625,23.6773599 33.1976401,20.3125 29.046875,20.3125 Z" id="Oval"></path>
                            <g id="$" transform="translate(25.593750, 21.937500)">
                                <path d="M7.3125,8.17281901 C7.3125,8.50515408 7.25499093,8.82655707 7.13997278,9.13702799 C7.02495463,9.44749891 6.85685118,9.73391927 6.63566243,9.99628906 C6.41447368,10.2586589 6.14241152,10.4838596 5.81947595,10.6718913 C5.49654038,10.859923 5.12715517,10.9932943 4.71132033,11.0720052 L4.71132033,12.59375 L2.90642015,12.59375 L2.90642015,11.0588867 C2.26939655,10.9539388 1.71200091,10.754975 1.23423321,10.4619954 C0.756465517,10.1690158 0.345054446,9.8257487 0,9.43219401 L1.64564428,8.15970052 C1.79605263,8.41332465 1.98406307,8.63415256 2.20967559,8.82218424 C2.43528811,9.01021593 2.68080762,9.15670573 2.94623412,9.26165365 L2.94623412,6.72978516 C2.63656987,6.64232856 2.32690563,6.52863498 2.01724138,6.38870443 C1.70757713,6.24877387 1.4310912,6.07386068 1.18778358,5.86396484 C0.944475953,5.65406901 0.74540608,5.40263129 0.590573956,5.10965169 C0.435741833,4.81667209 0.358325771,4.46465929 0.358325771,4.05361328 C0.358325771,3.72127821 0.420258621,3.40862088 0.544124319,3.11564128 C0.667990018,2.82266168 0.842729129,2.55810547 1.06834165,2.32197266 C1.29395417,2.08583984 1.56159256,1.88687609 1.87125681,1.72508138 C2.18092105,1.56328668 2.5259755,1.44740668 2.90642015,1.37744141 L2.90642015,0 L4.71132033,0 L4.71132033,1.41679687 C5.21563067,1.51299913 5.64916062,1.67479384 6.01191016,1.90218099 C6.37465971,2.12956814 6.71086661,2.39631076 7.02053085,2.70240885 L5.52087114,3.81748047 C5.2996824,3.50263672 5.01213702,3.26650391 4.65823503,3.10908203 L4.65823503,5.39169922 C4.96789927,5.49664714 5.2819873,5.62127279 5.60049909,5.76557617 C5.91901089,5.90987956 6.20434437,6.08916558 6.45649955,6.30343424 C6.70865472,6.51770291 6.91436025,6.77788628 7.07361615,7.08398438 C7.23287205,7.39008247 7.3125,7.75302734 7.3125,8.17281901 Z M5.48105717,8.15970052 C5.48105717,7.93231337 5.40364111,7.7464681 5.24880898,7.60216471 C5.09397686,7.45786133 4.89711887,7.33323568 4.65823503,7.22828776 L4.65823503,9.3141276 C4.91481397,9.20043403 5.11609574,9.04082574 5.26208031,8.83530273 C5.40806488,8.62977973 5.48105717,8.40457899 5.48105717,8.15970052 Z M2.16322595,3.98802083 C2.16322595,4.21540799 2.23400635,4.39469401 2.37556715,4.52587891 C2.51712795,4.6570638 2.70735027,4.77075738 2.94623412,4.86695964 L2.94623412,3.0172526 C2.69850272,3.1047092 2.50606851,3.23370768 2.36893149,3.40424805 C2.23179446,3.57478841 2.16322595,3.76937934 2.16322595,3.98802083 Z" id="Shape"></path>
                            </g>
                        </g>
                    </g>
                </g>
            </g>
        </g>
    </g>
</svg>