<?xml version="1.0" standalone="no"?>
<!DOCTYPE svg PUBLIC "-//W3C//DTD SVG 20010904//EN"
 "http://www.w3.org/TR/2001/REC-SVG-20010904/DTD/svg10.dtd">
<svg version="1.0" xmlns="http://www.w3.org/2000/svg"
 width="150.000000pt" height="150.000000pt" viewBox="0 0 150.000000 150.000000"
 preserveAspectRatio="xMidYMid meet">

<g transform="translate(0.000000,150.000000) scale(0.100000,-0.100000)"
fill="#000000" stroke="none">
<path d="M525 1451 c-11 -5 -29 -19 -40 -31 -17 -19 -20 -39 -23 -156 l-4
-134 30 -30 c31 -31 84 -41 97 -20 10 16 -13 38 -43 42 l-27 3 -3 132 c-2 124
-1 133 18 143 12 6 68 10 142 8 l123 -3 3 -35 c3 -33 3 -34 -15 -17 -22 20
-39 22 -49 6 -7 -12 74 -99 93 -99 18 0 93 69 93 86 0 23 -29 28 -50 9 -19
-18 -20 -17 -20 13 0 18 -10 42 -24 59 -24 28 -26 28 -153 30 -70 2 -137 -1
-148 -6z"/>
<path d="M592 1297 c-38 -39 -41 -45 -27 -57 13 -11 19 -10 34 4 19 17 20 15
23 -129 l3 -147 33 -29 c32 -29 34 -29 153 -29 127 0 168 11 189 49 5 11 10
73 10 139 0 110 -2 120 -22 139 -28 25 -60 33 -81 21 -22 -12 -10 -38 17 -38
39 0 46 -18 46 -123 0 -142 5 -137 -150 -137 -118 0 -130 2 -140 19 -5 11 -10
79 -10 151 l0 130 25 -16 c25 -16 45 -12 45 10 0 17 -73 86 -91 86 -8 0 -34
-20 -57 -43z"/>
<path d="M801 1197 c-21 -26 -82 -170 -77 -184 9 -23 33 -14 46 17 11 26 18
30 49 30 30 0 39 -5 53 -30 9 -17 22 -30 28 -30 25 0 20 36 -16 113 -45 98
-59 112 -83 84z m29 -77 c0 -5 -4 -10 -10 -10 -5 0 -10 5 -10 10 0 6 5 10 10
10 6 0 10 -4 10 -10z"/>
<path d="M289 926 c-88 -31 -137 -92 -146 -181 -7 -71 15 -132 66 -178 108
-98 267 -68 334 63 25 47 28 63 23 108 -4 30 -13 66 -20 81 -23 44 -76 89
-124 106 -55 18 -85 18 -133 1z"/>
<path d="M1078 926 c-59 -23 -96 -56 -123 -110 -43 -85 -28 -174 41 -242 49
-50 98 -68 170 -62 65 6 123 41 161 100 24 35 28 52 28 107 0 54 -5 75 -28
113 -49 84 -163 127 -249 94z"/>
<path d="M244 449 c-67 -25 -132 -84 -168 -149 -23 -41 -29 -69 -34 -136 -8
-132 -27 -124 314 -124 l284 0 16 25 c13 21 16 40 10 94 -3 37 -11 83 -17 102
-55 160 -247 249 -405 188z"/>
<path d="M1048 452 c-107 -39 -186 -124 -207 -223 -16 -72 -14 -141 5 -167 15
-22 17 -22 298 -22 340 0 322 -7 313 120 -4 59 -12 96 -32 135 -67 138 -236
208 -377 157z"/>
</g>
</svg>
