<?xml version="1.0" encoding="UTF-8"?>
<svg width="54px" height="23px" viewBox="0 0 54 23" version="1.1" xmlns="http://www.w3.org/2000/svg" xmlns:xlink="http://www.w3.org/1999/xlink">
    <title>Group 21</title>
    <g id="VD---Comps-0321" stroke="none" stroke-width="1" fill="none" fill-rule="evenodd">
        <g id="Artboard" transform="translate(-666, -317)" fill="#231F20">
            <g id="Group-21" transform="translate(666, 317)">
                <path d="M21.1328,2.00464625 C20.4078,2.00464625 19.6768,2.07764625 18.9468,2.22764625 C16.0308,2.82764625 14.1068,4.00164625 13.2248,5.71664625 C12.2048,7.70264625 12.4798,10.4876462 14.0408,13.9956462 C16.4258,19.3506462 21.2868,22.0616462 25.8578,20.5856462 C28.9438,19.5896462 31.2748,17.5696462 32.2528,15.0426462 C33.0658,12.9406462 32.8708,10.6616462 31.7048,8.62564625 C29.3108,4.44564625 25.3198,2.00464625 21.1328,2.00464625 M23.3168,22.9906465 C18.7948,22.9916462 14.4998,19.9436462 12.2138,14.8076462 C10.3938,10.7206462 10.1358,7.35464625 11.4458,4.80364625 C12.6178,2.52264625 15.0058,0.996646246 18.5428,0.268646246 C24.3468,-0.933353754 30.1938,1.96464625 33.4398,7.63064625 C34.9118,10.2016462 35.1528,13.0896462 34.1178,15.7646462 C32.9208,18.8556462 30.1348,21.3066462 26.4718,22.4886462 C25.4228,22.8276462 24.3638,22.9906465 23.3168,22.9906465" id="Fill-1"></path>
                <path d="M32.6829,18.4082462 C32.1999,18.4082462 31.7749,18.0562462 31.6969,17.5642462 C31.6109,17.0202462 31.9819,16.5072462 32.5269,16.4202462 C32.6089,16.4072462 40.6859,15.0682462 39.9939,10.6812462 C39.2909,6.22424625 31.3369,6.80124625 31.2549,6.81424625 C30.6899,6.84024625 30.2229,6.44724625 30.1779,5.89824625 C30.1329,5.34724625 30.5419,4.86524625 31.0919,4.82124625 C31.4959,4.78724625 40.9789,4.08624625 41.9689,10.3692462 C42.9709,16.7232462 33.2539,18.3302462 32.8399,18.3962462 C32.7869,18.4042462 32.7349,18.4082462 32.6829,18.4082462" id="Fill-3"></path>
                <path d="M36.2936,17.2155462 C36.1186,17.2155462 35.9426,17.1605462 35.7926,17.0475462 C35.4256,16.7705462 35.3516,16.2485462 35.6286,15.8805462 C36.6456,14.5335462 37.0556,13.1265462 36.8506,11.7025462 C36.4226,8.74454625 33.5126,6.55954625 33.4836,6.53754625 C33.1136,6.26354625 33.0356,5.74154625 33.3086,5.37154625 C33.5806,5.00354625 34.1006,4.92554625 34.4726,5.19454625 C34.6146,5.30054625 37.9636,7.80154625 38.4976,11.4535462 C38.7736,13.3375462 38.2556,15.1645462 36.9596,16.8835462 C36.7956,17.1005462 36.5466,17.2155462 36.2936,17.2155462" id="Fill-5"></path>
                <path d="M7.8417,13.6998462 C7.2897,13.6998462 6.8417,13.2518462 6.8417,12.6998462 L6.8417,9.94684625 C6.8417,9.39484625 7.2897,8.94684625 7.8417,8.94684625 C8.3937,8.94684625 8.8417,9.39484625 8.8417,9.94684625 L8.8417,12.6998462 C8.8417,13.2518462 8.3937,13.6998462 7.8417,13.6998462" id="Fill-7"></path>
                <path d="M4.4205,15.5019462 C3.8685,15.5019462 3.4205,15.0539462 3.4205,14.5019462 L3.4205,8.14494625 C3.4205,7.59294625 3.8685,7.14494625 4.4205,7.14494625 C4.9725,7.14494625 5.4205,7.59294625 5.4205,8.14494625 L5.4205,14.5019462 C5.4205,15.0539462 4.9725,15.5019462 4.4205,15.5019462" id="Fill-9"></path>
                <path d="M1,17.8300462 C0.448,17.8300462 -1.77635684e-15,17.3820462 -1.77635684e-15,16.8300462 L-1.77635684e-15,5.81704625 C-1.77635684e-15,5.26504625 0.448,4.81704625 1,4.81704625 C1.552,4.81704625 2,5.26504625 2,5.81704625 L2,16.8300462 C2,17.3820462 1.552,17.8300462 1,17.8300462" id="Fill-11"></path>
                <path d="M45.4837,12.3938462 C44.9317,12.3938462 44.4837,11.9458462 44.4837,11.3938462 L44.4837,10.3068462 C44.4837,9.75484625 44.9317,9.30684625 45.4837,9.30684625 C46.0357,9.30684625 46.4837,9.75484625 46.4837,10.3068462 L46.4837,11.3938462 C46.4837,11.9458462 46.0357,12.3938462 45.4837,12.3938462" id="Fill-13"></path>
                <path d="M48.9049,12.3938462 C48.3529,12.3938462 47.9049,11.9458462 47.9049,11.3938462 L47.9049,10.3068462 C47.9049,9.75484625 48.3529,9.30684625 48.9049,9.30684625 C49.4569,9.30684625 49.9049,9.75484625 49.9049,10.3068462 L49.9049,11.3938462 C49.9049,11.9458462 49.4569,12.3938462 48.9049,12.3938462" id="Fill-15"></path>
                <path d="M52.3261,12.3938462 C51.7741,12.3938462 51.3261,11.9458462 51.3261,11.3938462 L51.3261,10.3068462 C51.3261,9.75484625 51.7741,9.30684625 52.3261,9.30684625 C52.8781,9.30684625 53.3261,9.75484625 53.3261,10.3068462 L53.3261,11.3938462 C53.3261,11.9458462 52.8781,12.3938462 52.3261,12.3938462" id="Fill-17"></path>
                <path d="M19.7271,6.30414625 C18.2841,6.44114625 17.3081,6.87914625 16.8221,7.61414625 C16.1741,8.59014625 16.4051,10.0241462 16.7341,11.0961462 L19.7271,6.30414625 Z M16.6381,13.5851462 C16.5881,13.5851462 16.5381,13.5831462 16.4861,13.5791462 C15.8721,13.5211462 15.3511,13.1281462 15.1261,12.5541462 C14.4521,10.8331462 13.9101,8.38614625 15.1551,6.50814625 C16.0971,5.08714625 17.8511,4.33114625 20.3681,4.26414625 C20.9761,4.28114625 21.5331,4.56314625 21.8341,5.08814625 C22.1331,5.60914625 22.1221,6.24714625 21.8051,6.75314625 L18.0171,12.8181462 C17.7161,13.3001462 17.1981,13.5851462 16.6381,13.5851462 L16.6381,13.5851462 Z" id="Fill-19"></path>
            </g>
        </g>
    </g>
</svg>