<svg id="Layer_1" data-name="Layer 1" xmlns="http://www.w3.org/2000/svg" viewBox="0 0 51.36 44.53"><defs><style>.cls-1,.cls-2{fill:none;stroke-linecap:round;stroke-linejoin:round;stroke-width:1.5px;}.cls-1{stroke:#12100b;}.cls-2{stroke:#000;}</style></defs><path class="cls-1" d="M37.25,24.45A16.37,16.37,0,0,0,19.73,8.13c-9.45.78-15.11,10-14.27,18a16,16,0,0,0,5,9.75,24.61,24.61,0,0,1,5.29,8.85c2.1,5,4.79,6.42,8.32,6.42,3.73,0,7.51-2.37,8.36-6.26" transform="translate(-4.63 -7.33)"/><path class="cls-1" d="M11.57,24.41a10,10,0,0,1,8.94-10.13c5.49-.49,10.14,4,10.53,8.42a8.37,8.37,0,0,1-2.79,7,11.43,11.43,0,0,1-2.31,1.25,12.8,12.8,0,0,0-2.55,1.49,4.27,4.27,0,0,0-.85,5,4.42,4.42,0,0,0,4.39,2.25" transform="translate(-4.63 -7.33)"/><polyline class="cls-2" points="29.97 25.05 37.3 32.39 50.61 19.1"/></svg>