<svg id="Apps_Services" data-name="Apps &amp; Services" xmlns="http://www.w3.org/2000/svg" width="96" height="96" viewBox="0 0 96 96">
  <rect id="Container" width="96" height="96" fill="none"/>
  <path id="Icon_Light_Product_Accessories" data-name="Icon / Light / Product / Accessories" d="M56.86,82.465A19.6,19.6,0,1,1,64.464,84,19.467,19.467,0,0,1,56.86,82.465ZM52.724,52.723a16.608,16.608,0,1,0,11.741-4.862A16.48,16.48,0,0,0,52.724,52.723ZM11.93,82.465A19.6,19.6,0,1,1,19.535,84,19.467,19.467,0,0,1,11.93,82.465ZM7.794,52.723A16.6,16.6,0,1,0,31.277,76.2,16.6,16.6,0,0,0,7.794,52.723ZM56.862,37.535a19.6,19.6,0,1,1,7.6,1.535A19.477,19.477,0,0,1,56.862,37.535ZM52.724,7.8A16.6,16.6,0,1,0,64.465,2.93,16.506,16.506,0,0,0,52.724,7.8ZM11.932,37.535a19.6,19.6,0,1,1,7.6,1.535A19.477,19.477,0,0,1,11.932,37.535ZM7.794,7.8A16.6,16.6,0,0,0,31.277,31.277,16.6,16.6,0,1,0,7.794,7.8Z" transform="translate(6 6.912)" stroke="#ddd" stroke-width="1"/>
</svg>
