<svg id="Camera_icon" data-name="Camera icon" xmlns="http://www.w3.org/2000/svg" width="96" height="96" viewBox="0 0 96 96">
  <rect id="Container" width="96" height="96" fill="rgba(255,255,255,0)"/>
  <g id="Camera" transform="translate(9.998 16)">
    <path id="Icon_Light_Product_Camera" data-name="Icon / Light / Product / Camera" d="M73.078,64H2.923A2.917,2.917,0,0,1,0,61.251l0-.16V11.221a2.915,2.915,0,0,1,2.763-2.9l.16,0h17.1L23.56,1.563A2.922,2.922,0,0,1,25.792.022L25.97.006,49.926,0a2.939,2.939,0,0,1,2.517,1.428l.083.15L56,8.312H73.078A2.911,2.911,0,0,1,75.983,10.9l.013.157,0,50.03A2.914,2.914,0,0,1,73.238,64ZM2.506,10.805v50.7H73.494v-50.7H55.237a1.258,1.258,0,0,1-1.079-.613l-.057-.107-.01-.024-3.9-7.568H25.89l-4.027,7.692a1.254,1.254,0,0,1-.962.614l-.121.006ZM38,51.948A17.547,17.547,0,0,1,21.84,41.288,17.385,17.385,0,0,1,25.6,22.151,17.572,17.572,0,0,1,54.16,27.7,17.386,17.386,0,0,1,50.4,46.836,17.525,17.525,0,0,1,38,51.948Zm0-32.831a15.414,15.414,0,1,0,10.925,4.5A15.388,15.388,0,0,0,38,19.117Z" transform="translate(0 0)" stroke="#000" stroke-width="0.25"/>
  </g>
</svg>
