<svg id="Icon_Light_Product_Refrigerator" data-name="Icon / Light / Product / Refrigerator" xmlns="http://www.w3.org/2000/svg" width="96.375" height="96" viewBox="0 0 96.375 96">
  <rect id="Container" width="96" height="96" fill="rgba(255,255,255,0)"/>
  <g id="Kimchi_refrigerator" transform="translate(0 8)">
    <path id="Icon_Light_Product_Kimchi_refrigerator" data-name="Icon / Light / Product / Kimchi_refrigerator" d="M43.654,80H2.2A2.206,2.206,0,0,1,0,77.943L0,77.8V2.2A2.207,2.207,0,0,1,2.058,0L2.2,0H43.654a2.206,2.206,0,0,1,2.2,2.058l0,.145V77.8A2.206,2.206,0,0,1,43.8,80ZM2.726,64.725V77.273h40.4V64.725Zm0-15.275V62h40.4V49.45ZM24.291,2.726v44H43.128v-44Zm-21.564,0v44H21.564v-44ZM13.509,34.609H10.782V14.841h2.727V34.608Z"/>
  </g>
  <g id="Dryer" transform="translate(64.232 51)">
    <path id="Icon_Light_Product_Dryer" data-name="Icon / Light / Product / Dryer" d="M30.657,37H1.11A1.1,1.1,0,0,1,0,35.986l0-.071V1.085A1.1,1.1,0,0,1,1.037,0L1.11,0H30.657a1.1,1.1,0,0,1,1.108,1.014l0,.071V35.915A1.1,1.1,0,0,1,30.73,37ZM1.351,1.321V35.679H30.416V1.321ZM15.872,30.608a10.8,10.8,0,0,1-4.148-.819,10.641,10.641,0,0,1-3.388-2.234,10.379,10.379,0,0,1-2.284-3.313,10.233,10.233,0,0,1,0-8.11,10.377,10.377,0,0,1,2.285-3.311,10.644,10.644,0,0,1,3.388-2.233,10.8,10.8,0,0,1,4.148-.819,10.911,10.911,0,0,1,4.77,1.1A10.689,10.689,0,0,1,24.375,13.9l.114.15-1.091.779a9.329,9.329,0,0,0-3.287-2.747,9.524,9.524,0,0,0-7.86-.281,9.294,9.294,0,0,0-2.958,1.95A9.062,9.062,0,0,0,7.3,16.646a8.935,8.935,0,0,0,0,7.082,9.064,9.064,0,0,0,1.995,2.893,9.292,9.292,0,0,0,2.958,1.95,9.456,9.456,0,0,0,11.327-3.279l.1-.144,1.132.721a10.633,10.633,0,0,1-3.833,3.468A10.876,10.876,0,0,1,15.872,30.608ZM23.7,22.98a5.137,5.137,0,0,1-2.8-.774l-.161-.1a3.837,3.837,0,0,0-2.247-.67,2.782,2.782,0,0,0-2.016.847l-.1.1-.987-.9a4.169,4.169,0,0,1,3.1-1.365,5.106,5.106,0,0,1,2.8.773l.161.1a3.863,3.863,0,0,0,2.253.672,2.775,2.775,0,0,0,2.016-.845l.1-.1.988.9A4.162,4.162,0,0,1,23.7,22.98ZM23.7,19a5.141,5.141,0,0,1-2.8-.775l-.161-.1a3.848,3.848,0,0,0-2.247-.67,2.774,2.774,0,0,0-2.016.845l-.1.1-.988-.9a4.162,4.162,0,0,1,3.1-1.365,5.116,5.116,0,0,1,2.8.772l.161.1a3.869,3.869,0,0,0,2.254.673,2.779,2.779,0,0,0,2.016-.847l.1-.1.987.9A4.168,4.168,0,0,1,23.7,19ZM19.36,6.418H12.408V5.1H19.36v1.32Z" stroke="#000" stroke-width="0.75"/>
  </g>
  <g id="Robot_vacuum" transform="translate(63 8)">
    <path id="Icon_Light_Product_Robot_vacuum" data-name="Icon / Light / Product / Robot_vacuum" d="M16.5,33A16.52,16.52,0,0,1,4.923,28.321,16.075,16.075,0,0,1,0,16.991l0-.269V4.953A4.895,4.895,0,0,1,1.43,1.489,5.016,5.016,0,0,1,4.895,0h23.09A5.02,5.02,0,0,1,31.49,1.411,4.9,4.9,0,0,1,33,4.835l0,.119V16.722a16.062,16.062,0,0,1-4.834,11.511A16.506,16.506,0,0,1,16.5,33ZM1.165,11.841v4.881a14.914,14.914,0,0,0,4.408,10.6,15.351,15.351,0,0,0,10.674,4.508l.253,0a15.361,15.361,0,0,0,10.76-4.346,14.919,14.919,0,0,0,4.573-10.518l0-.25V11.841H28.729v6.2a2.879,2.879,0,0,1-.847,2.041,3.012,3.012,0,0,1-2.051.887H6.489A3.017,3.017,0,0,1,4.4,20.139a2.884,2.884,0,0,1-.91-2.008v-6.29Zm21.935,0V19.8h2.634a1.8,1.8,0,0,0,1.828-1.684l0-.08v-6.2Zm-18.441,0v6.2A1.79,1.79,0,0,0,6.406,19.8l.084,0H21.935V11.841H20.1a3.834,3.834,0,0,1-3.683,2.911h-.108a4,4,0,0,1-2.445-.83,3.709,3.709,0,0,1-1.346-2.082Zm8.929-6.794v5.988a2.631,2.631,0,0,0,2.526,2.547l.095,0,.1,0a2.636,2.636,0,0,0,2.716-2.464l0-.089V5.047Zm-.2-1.165h5.835a.957.957,0,0,1,.962.884l0,.062v5.848H31.835V4.953A3.737,3.737,0,0,0,30.743,2.31a3.859,3.859,0,0,0-2.651-1.144H5.016A3.863,3.863,0,0,0,2.327,2.24,3.741,3.741,0,0,0,1.166,4.848v5.829H12.424V4.828a.956.956,0,0,1,.9-.944Zm2.918,5.241a.97.97,0,1,1,.969-.97A.972.972,0,0,1,16.307,9.123Z" stroke="#000" stroke-width="0.75"/>
  </g>
</svg>
