<svg id="Mobile_Audio_Icon" data-name="Mobile &amp; Audio Icon" xmlns="http://www.w3.org/2000/svg" width="96" height="96" viewBox="0 0 96 96">
  <rect id="Container" width="96" height="96" fill="none"/>
  <g id="ICON" transform="translate(-62.5 -31)">
    <g id="Buds" transform="translate(120.04 39)">
      <g id="Group_1735" data-name="Group 1735" transform="translate(0 0)">
        <path id="Line_50" data-name="Line 50" d="M-.61,2.015A.39.39,0,0,1-1,1.625V-.61A.39.39,0,0,1-.61-1a.39.39,0,0,1,.39.39V1.625A.39.39,0,0,1-.61,2.015Z" transform="translate(28.184 12.473)"/>
        <path id="Line_51" data-name="Line 51" d="M-.61,2.76A.39.39,0,0,1-1,2.37V-.61A.39.39,0,0,1-.61-1a.39.39,0,0,1,.39.39V2.37A.39.39,0,0,1-.61,2.76Z" transform="translate(38.181 12.1)"/>
        <path id="Line_52" data-name="Line 52" d="M-.61,7.264A.39.39,0,0,1-1,6.875V-.61A.39.39,0,0,1-.61-1a.39.39,0,0,1,.39.39V6.875A.39.39,0,0,1-.61,7.264Z" transform="translate(30.683 8.714)"/>
        <path id="Line_53" data-name="Line 53" d="M-.61,7.976A.39.39,0,0,1-1,7.586V-.61A.39.39,0,0,1-.61-1a.39.39,0,0,1,.39.39v8.2A.39.39,0,0,1-.61,7.976Z" transform="translate(35.682 9.492)"/>
        <path id="Line_54" data-name="Line 54" d="M-.61,14.094A.39.39,0,0,1-1,13.7V-.61A.39.39,0,0,1-.61-1a.39.39,0,0,1,.39.39V13.7A.39.39,0,0,1-.61,14.094Z" transform="translate(33.182 5.237)"/>
        <path id="Path_11" data-name="Path 11" d="M23.108,10.478a11.488,11.488,0,0,0-.272-1.618V8.854c-.041-.171-.087-.34-.136-.507l-.006-.02q-.073-.249-.157-.494l-.006-.02q-.085-.248-.182-.49l0-.007A11.63,11.63,0,0,0,14.814.463l-.013,0q-.243-.071-.49-.131l-.07-.016c-.148-.035-.3-.068-.449-.1l-.13-.023c-.133-.024-.267-.048-.4-.068-.067-.01-.135-.017-.2-.026-.114-.014-.228-.03-.343-.041s-.2-.016-.3-.023c-.086-.006-.171-.014-.257-.018Q11.869,0,11.581,0A11.594,11.594,0,0,0,0,11.581a15.521,15.521,0,0,0,3.353,9.231c2.295,2.916,5.217,4.523,8.228,4.523.169,0,.337-.007.505-.017.054,0,.108-.008.162-.012q.174-.014.347-.035l.184-.023c.117-.017.233-.037.35-.058q.139-.026.277-.056c.107-.023.214-.047.32-.075s.192-.053.287-.081l.167-.05q.167-.052.333-.111l.051-.019a10.888,10.888,0,0,0,3.512-2.138,2.945,2.945,0,0,0,1.12.56,4.984,4.984,0,0,0,3.9-.955,7,7,0,0,0,2.784-4.045c.674-2.69-.4-6.539-2.775-7.744M1,11.581A10.6,10.6,0,0,1,11.581,1c.177,0,.353,0,.528.013.088,0,.175.013.262.019s.169.011.253.019c.12.012.238.028.357.043l.147.019c.14.021.279.045.418.072l.075.013q.235.046.466.1l.015,0a10.618,10.618,0,0,1,8.036,9.539v.009l.015.219c.008.17.013.341.013.513a14.635,14.635,0,0,1-4.6,10.184l-.111.1c-.1.088-.2.174-.3.258-.037.031-.073.063-.11.093-.135.111-.272.218-.411.321l-.047.034q-.185.136-.374.263l-.128.083c-.1.067-.207.132-.311.194l-.137.081c-.111.065-.224.126-.337.186l-.108.057c-.151.077-.3.15-.457.217l-.034.014q-.209.091-.423.17l-.134.048c-.114.04-.229.078-.344.113l-.139.042c-.145.041-.291.079-.438.112l-.036.009c-.158.035-.317.063-.476.088l-.141.019c-.119.016-.239.029-.359.039l-.145.012c-.162.011-.325.018-.49.018C5.717,24.34,1,17.36,1,11.581m23.923,6.4A6,6,0,0,1,22.53,21.45a4.055,4.055,0,0,1-3.093.806,1.931,1.931,0,0,1-.631-.3,14.83,14.83,0,0,0,1-1.147,15.557,15.557,0,0,0,3.35-9.1,6.584,6.584,0,0,1,1.759,6.271" transform="translate(0 0)" stroke="#000" stroke-width="0.25"/>
        <path id="Path_9" data-name="Path 9" d="M20.858,15.761A9.673,9.673,0,0,1,26.186,17.1a5.1,5.1,0,0,1,1.7,1.83,5.5,5.5,0,0,1,.624,2.64,10.1,10.1,0,0,1-2.2,5.946,8.706,8.706,0,0,1-2.412,2.17,5.729,5.729,0,0,1-6.086,0,8.706,8.706,0,0,1-2.412-2.17,10.1,10.1,0,0,1-2.2-5.946,5.5,5.5,0,0,1,.624-2.64,5.1,5.1,0,0,1,1.7-1.83A9.673,9.673,0,0,1,20.858,15.761Zm0,13.723a4.879,4.879,0,0,0,2.5-.726,7.75,7.75,0,0,0,2.112-1.907,9.865,9.865,0,0,0,1.446-2.59,7.86,7.86,0,0,0,.526-2.7,4.038,4.038,0,0,0-1.845-3.577,8.631,8.631,0,0,0-4.736-1.156,8.631,8.631,0,0,0-4.736,1.156,4.038,4.038,0,0,0-1.845,3.577,7.86,7.86,0,0,0,.526,2.7,9.865,9.865,0,0,0,1.446,2.59,7.75,7.75,0,0,0,2.112,1.907A4.879,4.879,0,0,0,20.858,29.484Z" transform="translate(-9.277 -11.051)" stroke="#000" stroke-width="0.25"/>
        <path id="Path_10" data-name="Path 10" d="M33.343,67.348h1.432a1.15,1.15,0,0,1,0,2.3H33.343a1.15,1.15,0,0,1,0-2.3Zm1.432,1.521a.371.371,0,0,0,0-.742H33.343a.371.371,0,0,0,0,.742Z" transform="translate(-22.42 -46.812)"/>
      </g>
    </g>
    <g id="Watch" transform="translate(-2 41)">
      <path id="Icon_Light_Product_Wearable_watch" data-name="Icon / Light / Product / Wearable_watch" d="M6.922,44.537a1.2,1.2,0,0,1-1.2-1.118l0-.078V37.629l0-.087a5.334,5.334,0,0,0-.887-2.932l-.106-.161L3.439,32.682a17.458,17.458,0,0,1,.02-20.854L4.7,10.121c.014-.02.025-.036.034-.05l.006-.009a5.269,5.269,0,0,0,.965-2.882l.014-.242,0-.482V1.2A1.2,1.2,0,0,1,6.843,0l.079,0H28.044a1.2,1.2,0,0,1,1.195,1.118l0,.079V6.909l0,.088a5.343,5.343,0,0,0,.887,2.93l.088.134c.059.087.24.334.469.647l.052.071.014.019.015.02c.356.486.843,1.151,1.1,1.521A17.489,17.489,0,0,1,32,32.006l-.235.343c-.256.365-.636.885-1,1.387l-.017.023,0,.005-.011.015c-.248.338-.444.605-.505.7a5.285,5.285,0,0,0-.965,2.883l-.014.245,0,.486V43.34a1.2,1.2,0,0,1-1.118,1.194l-.079,0Zm.22-7.27.012.2.006.115,0,.4V43.1H27.8l0-5.437v-.107l0-.084a9.14,9.14,0,0,1,.131-1.2l-.14.106a17.462,17.462,0,0,1-20.778-.1A8.47,8.47,0,0,1,7.142,37.267ZM4.248,31.334l.147.213.208.293a16.192,16.192,0,0,0,5.557,4.709A16.047,16.047,0,0,0,30.868,13.427l-.2-.289A16.17,16.17,0,0,0,25.04,8.116a15.981,15.981,0,0,0-7.56-1.89,16.119,16.119,0,0,0-3.822.458,15.916,15.916,0,0,0-3.491,1.3,16.2,16.2,0,0,0-5.556,4.7l-.207.292-.156.226,0,0a16.053,16.053,0,0,0,0,18.136l0,0h0ZM23.089,5.708a17.4,17.4,0,0,1,4.854,2.557,8.607,8.607,0,0,1-.119-.994l-.012-.2-.005-.112,0-.5V1.437H7.161l0,5.544,0,.085A9.12,9.12,0,0,1,7.025,8.26,17.51,17.51,0,0,1,23.089,5.708ZM11.841,35.617a14.536,14.536,0,1,1,5.639,1.138A14.435,14.435,0,0,1,11.841,35.617Zm.466-25.594a13.334,13.334,0,1,0,5.173-1.044A13.248,13.248,0,0,0,12.307,10.024Z" transform="translate(122.041 37)"/>
    </g>
    <g id="Phone" transform="translate(0 1)">
      <path id="Icon_Light_Product_Phone" data-name="Icon / Light / Product / Phone" d="M6.177,88.388A6.175,6.175,0,0,1,0,82.432l0-.222V6.177A6.18,6.18,0,0,1,5.956,0l.222,0H46.1a6.18,6.18,0,0,1,6.174,5.956l0,.222V82.211a6.178,6.178,0,0,1-5.958,6.173l-.221,0ZM2.851,82.211a3.325,3.325,0,0,0,3.143,3.321l.183.006H46.1a3.326,3.326,0,0,0,3.321-3.144l0-.183,0-.8a5.822,5.822,0,0,1-3.044,1.033l-.283.007H6.177a5.826,5.826,0,0,1-3.327-1.04Zm0-71.532V77.71a3.58,3.58,0,0,0,3.131,2.356l.2.006H46.1a3.589,3.589,0,0,0,3.327-2.365V10.681a3.577,3.577,0,0,0-3.131-2.359l-.2-.005H6.177A3.592,3.592,0,0,0,2.851,10.678ZM46.1,5.94a5.831,5.831,0,0,1,3.327,1.04l0-.8a3.323,3.323,0,0,0-3.143-3.321L46.1,2.851H6.177A3.328,3.328,0,0,0,2.855,6l0,.181v.8A5.829,5.829,0,0,1,5.9,5.947l.282-.008ZM23.76,15.427A2.376,2.376,0,1,1,26.137,17.8,2.376,2.376,0,0,1,23.76,15.427Z" transform="translate(63 32.807)" stroke="#fff" stroke-width="0.3"/>
    </g>
  </g>
</svg>
