<svg xmlns="http://www.w3.org/2000/svg" width="108.631" height="63.807" viewBox="0 0 108.631 63.807">
  <g id="Group_1752" data-name="Group 1752" transform="translate(-409.934 -111.193)">
    <path id="Icon_Light_Product_TV" data-name="Icon / Light / Product / TV" d="M7.266,63.807h0L4.989,62.491l5.469-9.475h-8A2.468,2.468,0,0,1,0,50.686l0-.151V2.482A2.475,2.475,0,0,1,2.306,0l.15,0H79.048A2.47,2.47,0,0,1,81.5,2.332l0,.15V50.534A2.473,2.473,0,0,1,79.2,53.012l-.15,0H70.63L76.1,62.491l-2.277,1.315-6.23-10.79h-54.1L7.266,63.807ZM2.612,2.613V50.4H78.89V2.613Z" transform="translate(409.934 111.193)"/>
    <g id="Audio" transform="translate(497.344 123)">
      <path id="Exclusion_38" data-name="Exclusion 38" d="M19.41,38.007H1.311A1.315,1.315,0,0,1,0,36.795V1.3A1.316,1.316,0,0,1,1.219,0H19.41a1.312,1.312,0,0,1,1.31,1.213V36.705A1.307,1.307,0,0,1,19.5,38ZM1.645,1.63V36.376H19.072V1.632H1.645ZM10.36,30.488A4.7,4.7,0,1,1,15.1,25.8,4.72,4.72,0,0,1,10.36,30.488Zm0-7.76A3.065,3.065,0,1,0,13.448,25.8,3.082,3.082,0,0,0,10.36,22.728Zm0-6.786a3.726,3.726,0,1,1,3.755-3.729A3.749,3.749,0,0,1,10.36,15.941Zm0-5.821a2.093,2.093,0,1,0,2.11,2.092A2.1,2.1,0,0,0,10.36,10.12Z" transform="translate(0 0)" stroke="rgba(0,0,0,0)" stroke-width="1"/>
    </g>
    <g id="DVD" transform="translate(8.344 -1347.123)">
      <g id="Rectangle_121" data-name="Rectangle 121" transform="translate(489 1511)" fill="none" stroke="#000" stroke-linejoin="round" stroke-width="1.4">
        <rect width="20.721" height="8.108" stroke="none"/>
        <rect x="0.7" y="0.7" width="19.321" height="6.708" fill="none"/>
      </g>
      <path id="Path" d="M14.036,0V1.241H0V0Z" transform="translate(492.153 1514.443)"/>
    </g>
  </g>
</svg>
