  <svg class="w-8" viewBox="0 0 35 46">
        <path d="M331.5,1597s-17.5-19.22-17.5-28.75a17.5,17.5,0,0,1,35,0C349,1577.78,331.5,1597,331.5,1597Zm0-40.25a11.5,11.5,0,1,0,11.667,11.5A11.586,11.586,0,0,0,331.5,1556.75Zm1.229,16.63a1.106,1.106,0,0,0-.39-0.86,1.358,1.358,0,0,0-1.831.01,1.189,1.189,0,0,0-.383.88,1.122,1.122,0,0,0,.106.48,1.259,1.259,0,0,0,.285.39,1.462,1.462,0,0,0,.415.25,1.2,1.2,0,0,0,.5.1,1.261,1.261,0,0,0,.92-0.37A1.172,1.172,0,0,0,332.729,1573.38Zm-0.325-3.09a1.456,1.456,0,0,1,.269-0.68,4.49,4.49,0,0,1,.773-0.77c0.249-.22.474-0.42,0.675-0.62a4.051,4.051,0,0,0,.513-0.61,2.7,2.7,0,0,0,.325-0.71,3.094,3.094,0,0,0,.114-0.89,3.009,3.009,0,0,0-.276-1.33,2.742,2.742,0,0,0-.757-0.97,3.291,3.291,0,0,0-1.107-.59,4.443,4.443,0,0,0-1.327-.2,4.22,4.22,0,0,0-2,.47,3.246,3.246,0,0,0-1.351,1.37,1.616,1.616,0,0,0-.162.43,1.647,1.647,0,0,0-.033.27,0.889,0.889,0,0,0,.261.67,0.936,0.936,0,0,0,.683.26,1.018,1.018,0,0,0,.513-0.14,1.13,1.13,0,0,0,.415-0.53,1.864,1.864,0,0,1,.6-0.77,1.562,1.562,0,0,1,.944-0.29,1.506,1.506,0,0,1,1.31,2.29,3.019,3.019,0,0,1-.529.61l-0.732.69a3.931,3.931,0,0,0-.806.97,2.219,2.219,0,0,0-.252,1.07,1.149,1.149,0,0,0,.106.53,0.855,0.855,0,0,0,.252.32,0.684,0.684,0,0,0,.309.15,1.04,1.04,0,0,0,.277.04,0.957,0.957,0,0,0,.269-0.04,0.683,0.683,0,0,0,.3-0.15,1,1,0,0,0,.26-0.31A1.509,1.509,0,0,0,332.4,1570.29Z" transform="translate(-314 -1551)" fill="#d8d8d8"></path>
</svg>