<?xml version="1.0" encoding="UTF-8"?>
<svg width="216px" height="24px" viewBox="0 0 216 24" version="1.1" xmlns="http://www.w3.org/2000/svg" xmlns:xlink="http://www.w3.org/1999/xlink">
    <title>IMG/Logo/txt_logo</title>

    <g id="IMG/Logo/txt_logo" stroke="none" stroke-width="1" fill="none" fill-rule="evenodd">
        <g id="txt_logo" transform="translate(0, 3.36)">
            <g transform="translate(0, 0)">
                <path d="M5.66643061,16.9829365 C4.29366068,17.0505198 2.93052291,16.7269303 1.74527936,16.0521109 C0.574816177,15.2758688 -0.0854662677,13.9578698 0.00891315336,12.586126 L0.00891315336,11.4311225 L4.18544195,11.4311225 L4.19046906,12.8853547 C4.17695584,13.276814 4.34063914,13.6544386 4.63852773,13.9190459 C4.93641633,14.1836533 5.33873913,14.3087983 5.73982652,14.261612 C6.44472763,14.3613382 7.10895465,13.9150227 7.2600267,13.2401406 C7.36306632,12.8729283 7.35222566,12.484425 7.22885857,12.1231499 C6.88500377,11.2868689 5.65436553,10.6328543 4.35133681,9.94180166 C2.59988925,9.01000143 0.612167192,7.95344133 0.22407376,6.18536013 C0.0763212795,5.51448687 0.0660726774,4.82199713 0.193911059,4.14729079 C0.657411245,1.3723585 3.40523339,0.787546641 5.62922995,0.787546641 C6.81901377,0.73693397 8.00363189,0.967751929 9.08084847,1.46008028 C10.2687779,2.06930064 10.9749529,3.29979888 10.8825672,4.5995453 L10.8825672,5.66097883 L6.99962204,5.66097883 L6.99962204,4.72625453 C7.02689141,4.34958413 6.88222842,3.98029513 6.60391934,3.71612295 C6.32561025,3.45195077 5.94171081,3.31952602 5.55382319,3.35389603 C4.87613509,3.2731485 4.25150305,3.71991875 4.13114908,4.37146867 C4.07827207,4.63432139 4.08341193,4.90504967 4.14623044,5.16583812 C4.33223376,5.91634667 5.49550863,6.51382946 6.84579226,7.20488215 C8.6867225,8.15032799 10.7739815,9.22150838 11.1520207,11.0480708 C11.2936573,11.8668558 11.2990884,12.7023492 11.1681074,13.5227996 C11.0346721,14.650188 10.3504867,15.6467235 9.32918805,16.201238 C8.19948097,16.7670016 6.93677775,17.0364853 5.66643061,16.9829365 L5.66643061,16.9829365 Z M56.266374,16.9030122 C54.9055667,16.9709501 53.5540997,16.6503596 52.3794071,15.9809588 C51.2251304,15.2111425 50.5754174,13.908093 50.6701873,12.5529866 L50.6701873,11.3999326 L54.8004666,11.3999326 L54.8004666,12.8512407 C54.7897073,13.2405996 54.9553604,13.6150004 55.2537809,13.8757994 C55.5522015,14.1365984 55.9534595,14.2576386 56.3518349,14.2070295 C57.0472265,14.3044079 57.7018861,13.8638589 57.8509212,13.198229 C57.9460354,12.8344615 57.935597,12.4522876 57.8207585,12.0939093 C57.4809254,11.2673752 56.2623523,10.6201834 54.972394,9.93595354 C53.234017,9.01292549 51.2633871,7.96708694 50.8823317,6.21947416 C50.729959,5.55515395 50.7183292,4.86775619 50.8481473,4.19894917 C51.3056149,1.45130811 54.0313177,0.873319048 56.2362112,0.873319048 C57.4110067,0.822591249 58.580864,1.05007902 59.6445966,1.53610583 C60.8171231,2.14045662 61.5128559,3.35724077 61.4201743,4.64145681 L61.4201743,5.69606754 L57.5824732,5.69606754 L57.5824732,4.77109011 C57.611767,4.3980754 57.4703231,4.03145224 57.1957194,3.76862275 C56.9211157,3.50579325 56.541155,3.37336807 56.1567828,3.4065291 C55.4849287,3.32927876 54.8675408,3.77346136 54.74919,4.41922831 C54.7019587,4.67755481 54.7063961,4.94227504 54.7622605,5.19897746 C54.9492693,5.94071384 56.0984682,6.53332319 57.4296488,7.21852776 C59.2504706,8.15715079 61.3146048,9.21955901 61.6856061,11.0198049 C61.8357087,11.8297223 61.8448843,12.6582864 61.7127525,13.4711413 C61.5823525,14.5865037 60.9056762,15.5726649 59.894947,16.120339 C58.7764774,16.6833987 57.525596,16.9532104 56.266374,16.9030122 L56.266374,16.9030122 Z M70.8771868,16.844531 C67.5170618,16.844531 65.6922183,15.5862108 65.4529275,13.1036845 C65.4358353,12.9526081 65.4127106,12.3804671 65.4177377,12.1046309 L65.4177377,1.26904174 L69.3529649,1.26904174 L69.3529649,12.4516192 C69.3419488,12.6438579 69.3554566,12.8366798 69.3931818,13.0257095 C69.5789577,13.6747263 70.1884381,14.1239453 70.8832193,14.1239453 C71.5780005,14.1239453 72.1874809,13.6747263 72.3732568,13.0257095 C72.4045435,12.8359501 72.4156614,12.6435791 72.4064358,12.4516192 L72.4064358,1.26904174 L76.3426684,1.26904174 L76.3426684,12.1046309 C76.3534243,12.4379733 76.3426788,12.7716416 76.3104948,13.1036845 C76.0671823,15.5852361 74.2393226,16.844531 70.8771868,16.844531 L70.8771868,16.844531 Z M103.343314,16.6827331 C102.064494,16.7318204 100.795877,16.443815 99.6725129,15.8493762 C98.6120419,15.2329078 97.9379645,14.1448874 97.8748158,12.9477346 C97.8339037,12.6168376 97.813089,12.2838954 97.8124796,11.9506304 L97.8124796,5.59567484 C97.8124796,5.31301577 97.8617453,4.83347004 97.8909026,4.59467187 C97.9787719,3.39247756 98.657377,2.30450739 99.7147407,1.67061255 C100.829212,1.08557631 102.08739,0.806851919 103.353368,0.86454687 C105.665842,0.86454687 108.492087,1.51173866 108.811812,4.59662124 C108.840871,4.92949595 108.85094,5.26367268 108.841974,5.59762421 L108.841974,6.09276492 L104.920823,6.09276492 L104.920823,5.25453458 C104.920025,5.05873211 104.90423,4.86325738 104.873568,4.66972272 C104.73227,3.96548994 104.052577,3.48759636 103.318178,3.57612454 C102.589169,3.50112039 101.920178,3.97393508 101.770832,4.66972272 C101.719373,4.90449434 101.69576,5.14419796 101.700452,5.38416788 L101.700452,12.2888466 C101.699158,12.4812701 101.712939,12.6735111 101.741674,12.8639116 C101.893202,13.5756057 102.583348,14.0550113 103.327227,13.9653073 C104.072326,14.0521844 104.763196,13.5749987 104.921828,12.8639116 C104.95636,12.6741582 104.970177,12.4814064 104.963051,12.2888466 L104.963051,10.105549 L103.366438,10.105549 L103.366438,7.90275763 L108.872137,7.90275763 L108.872137,11.9516051 C108.866104,12.2215932 108.861077,12.4389483 108.813822,12.9487093 C108.510185,16.1973392 105.255629,16.6827331 103.343314,16.6827331 L103.343314,16.6827331 Z M33.4563333,16.3825296 L29.568361,16.3825296 L29.903167,1.26904174 L36.2514104,1.26904174 L38.2150023,13.0851654 L40.1785942,1.26904174 L46.5197995,1.26904174 L46.867676,16.3825296 L42.9686441,16.3825296 L42.8630746,2.39188052 L40.1836213,16.3825296 L36.2373344,16.3825296 L33.5619028,2.39188052 L33.4563333,16.3825296 Z M17.991916,16.3825296 L13.7832137,16.3825296 L16.6707897,1.26904174 L23.5881027,1.26904174 L26.4595919,16.3825296 L22.2840685,16.3825296 L20.164636,2.39188052 L17.991916,16.3825296 L17.991916,16.3825296 Z M84.4795599,16.2246304 L80.658951,16.2246304 L80.658951,1.26904174 L86.4351084,1.26904174 L90.0948496,13.4399513 L89.8867269,1.26904174 L93.7324714,1.26904174 L93.7324714,16.2265798 L88.1925885,16.2265798 L84.2573613,3.66871975 L84.4785545,16.2275545 L84.4795599,16.2246304 Z" id="prefix__Fill_1" fill="#010101" fill-rule="nonzero"></path>
                <path d="M126.01159,17.0121771 L122.769099,17.0121771 L128.708135,0.816787235 L131.837013,0.816787235 L137.775043,17.0102277 L134.532553,17.0102277 L133.50501,14.1261305 L127.041143,14.1261305 L126.012595,17.0121771 L126.01159,17.0121771 Z M130.284639,5.09858475 L128.091811,11.2459321 L132.476462,11.2459321 L130.283634,5.10540756 L130.284639,5.09858475 Z" id="prefix__Fill_3" fill="#010101" fill-rule="nonzero"></path>
                <g id="prefix__Group_7" transform="translate(137.7703, 3.7689)">
                    <polygon id="prefix__Clip_6-2" points="0.000710757146 0.00115294523 13.3557497 0.00115294523 13.3557497 13.5044588 0.000710757146 13.5044588"></polygon>
                    <g id="prefix__Group_7-2" fill="#010101" fill-rule="nonzero">
                        <path d="M0.000710757143,6.76352745 C-0.0258913665,4.96868947 0.69522092,3.23928402 2.0009205,1.96653021 C3.30662008,0.693776405 5.08657542,-0.0147781348 6.9381322,0.00115294523 C9.70771932,-0.0489859935 12.2299465,1.5400524 13.3074894,4.01393701 L10.5476022,5.14554796 C9.96601084,3.72430862 8.54035266,2.79814448 6.96326779,2.81702206 C5.89521121,2.81813582 4.87308756,3.23825355 4.12969119,3.98169108 C3.38629483,4.72512862 2.9849196,5.72858861 3.01698095,6.76352745 C2.99478747,7.79802409 3.40371994,8.79751317 4.15132167,9.53601737 C4.8989234,10.2745216 5.92206042,10.6896752 6.98940879,10.687615 C8.59549892,10.6957192 10.0358973,9.7306828 10.5958625,8.27136737 L13.3577606,9.42442142 C12.3046918,11.9489698 9.74621108,13.5750291 6.9381322,13.5044588 C5.09237029,13.5141593 3.31954246,12.8065673 2.01588488,11.5398335 C0.712227296,10.2730997 -0.0135706016,8.55283501 0.000710757143,6.76352745" id="prefix__Fill_5"></path>
                    </g>
                </g>
                <g id="prefix__Group_10" transform="translate(151.7407, 3.7689)">
                    <polygon id="prefix__Clip_9-2" points="0.000710757146 0.00115294523 13.3557497 0.00115294523 13.3557497 13.5044588 0.000710757146 13.5044588"></polygon>
                    <g id="prefix__Group_10-2" fill="#010101" fill-rule="nonzero">
                        <path d="M0.000710757143,6.76352745 C-0.0258913665,4.96868947 0.69522092,3.23928402 2.0009205,1.96653021 C3.30662008,0.693776405 5.08657542,-0.0147781348 6.9381322,0.00115294523 C9.70771932,-0.0489859935 12.2299465,1.5400524 13.3074894,4.01393701 L10.5476022,5.14554796 C9.96601084,3.72430862 8.54035266,2.79814448 6.96326779,2.81702206 C5.89521121,2.81813582 4.87308756,3.23825355 4.12969119,3.98169108 C3.38629483,4.72512862 2.9849196,5.72858861 3.01698095,6.76352745 C2.99478747,7.79802409 3.40371994,8.79751317 4.15132167,9.53601737 C4.8989234,10.2745216 5.92206042,10.6896752 6.98940879,10.687615 C8.59549892,10.6957192 10.0358973,9.7306828 10.5958625,8.27136737 L13.3577606,9.42442142 C12.3046918,11.9489698 9.74621108,13.5750291 6.9381322,13.5044588 C5.09237029,13.5141593 3.31954246,12.8065673 2.01588488,11.5398335 C0.712227296,10.2730997 -0.0135706016,8.55283501 0.000710757143,6.76352745" id="prefix__Fill_8"></path>
                    </g>
                </g>
                <g id="prefix__Group_13" transform="translate(165.711, 3.7699)">
                    <polygon id="prefix__Clip_12-2" points="0.00076839192 0.000143058177 13.8343889 0.000143058177 13.8343889 13.503449 0.00076839192 13.503449"></polygon>
                    <g id="prefix__Group_13-2" fill="#010101" fill-rule="nonzero">
                        <path d="M6.91808137,13.5035196 C5.07540008,13.5116773 3.30691945,12.8002649 2.01161519,11.5297089 C0.715370179,10.2622641 -0.00802012851,8.54729507 0.000768391919,6.76251756 C-0.026852105,4.97076826 0.691161363,3.24375903 1.99272144,1.97135214 C3.29428152,0.698945252 5.0696621,-0.0115909079 6.91808137,0.000143058177 C8.75500416,-0.00888820481 10.5188786,0.696861482 11.8144933,1.9592628 C13.120665,3.23574735 13.8476811,4.96457099 13.8343889,6.76251756 C13.841551,8.54869987 13.1147133,10.2641225 11.8144933,11.5297089 C10.521634,12.7978464 8.75728005,13.5090562 6.91808137,13.5035196 L6.91808137,13.5035196 Z M6.91808137,2.81601218 C5.86007586,2.83008576 4.85244238,3.25639571 4.12233697,3.99883676 C3.39223156,4.7412778 3.00111079,5.73735502 3.03714705,6.76251756 C3.00272522,7.7852206 3.39507072,8.77818776 4.12546573,9.5168877 C4.85586074,10.2555876 5.86261564,10.6776293 6.91808137,10.6875798 C7.9735471,10.6776293 8.98030199,10.2555876 9.71069701,9.5168877 C10.441092,8.77818776 10.8334375,7.7852206 10.7990157,6.76251756 C10.8350519,5.73735502 10.4439312,4.7412778 9.71382577,3.99883676 C8.98372035,3.25639571 7.97608688,2.83008576 6.91808137,2.81601218 L6.91808137,2.81601218 Z" id="prefix__Fill_11"></path>
                    </g>
                </g>
                <g id="prefix__Group_16" transform="translate(180.8926, 4.0362)">
                    <polygon id="prefix__Clip_15-2" points="0 0 12.0308964 0 12.0308964 13.2372165 0 13.2372165"></polygon>
                    <g id="prefix__Group_16-2" fill="#010101" fill-rule="nonzero">
                        <path d="M12.0308964,12.9711271 L8.97139298,12.9711271 L8.97139298,11.485705 C8.066147,12.6439251 6.63342358,13.2992493 5.13570272,13.2401406 C1.94046716,13.2372165 0,11.2196156 0,7.69417474 L0,0 L3.12686677,0 L3.12686677,7.38324976 C3.12686677,9.40085069 4.03979121,10.6426012 5.98025837,10.6426012 C7.68947815,10.6426012 8.94826824,9.40085069 8.94826824,7.11716037 L8.94826824,0 L12.029891,0 L12.0308964,12.9711271 Z" id="prefix__Fill_14"></path>
                    </g>
                </g>
                <path d="M194.816734,4.03617654 L197.875232,4.03617654 L197.875232,5.63271292 C198.822533,4.42735951 200.308091,3.73482995 201.870785,3.77008714 C205.226888,3.77008714 207.167355,5.78768807 207.167355,9.31312891 L207.167355,17.0073036 L204.039483,17.0073036 L204.039483,9.6230792 C204.039483,7.60547827 203.03406,6.36372775 201.023213,6.36372775 C199.265733,6.36372775 197.895341,7.60547827 197.895341,9.88916859 L197.895341,17.0043796 L194.816734,17.0043796 L194.816734,4.03617654 Z" id="prefix__Fill_17" fill="#010101" fill-rule="nonzero"></path>
                <g id="prefix__Group_21" transform="translate(207.8963, 0)">
                    <polygon id="prefix__Clip_20-2" points="0 0 8.10371259 0 8.10371259 17.006329 0 17.006329"></polygon>
                    <g id="prefix__Group_21-2" fill="#010101" fill-rule="nonzero">
                        <path d="M0,4.03520185 L2.28231111,4.03520185 L2.28231111,2.0624365 L5.38705857,0 L5.38705857,4.03520185 L8.10170174,4.03520185 L8.10170174,6.71851361 L5.38705857,6.71851361 L5.38705857,11.5744014 C5.38705857,13.835674 5.72990794,14.1904598 8.10170174,14.1904598 L8.10170174,17.006329 L7.6703751,17.006329 C3.53808494,17.006329 2.28231111,15.7207175 2.28231111,11.5958445 L2.28231111,6.72241236 L0,6.72241236 L0,4.03520185 Z" id="prefix__Fill_19"></path>
                    </g>
                </g>
            </g>
        </g>
    </g>
</svg>
