<?xml version="1.0" encoding="UTF-8"?>
<svg width="28px" height="28px" viewBox="0 0 28 28" version="1.1" xmlns="http://www.w3.org/2000/svg" xmlns:xlink="http://www.w3.org/1999/xlink">
    <title>21B48C67-58E2-4004-B283-85C5ECBC25CE</title>
    <g id="Version-2---Final-Files" stroke="none" stroke-width="1" fill="none" fill-rule="evenodd">
        <g id="PC-/-Samsung-Care-+-/-V5-/-1" transform="translate(-1235.000000, -160.000000)">
            <rect fill="#FFFFFF" x="0" y="0" width="1440" height="1901"></rect>
            <g id="RIGHT-COLUMN-Copy" transform="translate(849.000000, -625.000000)">
                <g id="Group-Copy" transform="translate(1.000000, 657.000000)"></g>
            </g>
            <g id="desktop-/-promobanner" transform="translate(1.000000, 0.000000)">
                <rect id="Rectangle" fill="#FFFFFF" x="0" y="0" width="1440" height="204"></rect>
                <g id="Icon-Copy" transform="translate(1234.000000, 160.000000)" fill="#2189FF" fill-rule="nonzero">
                    <path d="M7.20454545,10.1395349 L7.20454545,12.4264535 L7.2054818,12.5182423 C7.25534063,14.960053 9.29001884,16.9244186 11.7840909,16.9244186 L17.5167659,16.9241279 L18.4318182,17.827907 L18.4318182,20.5659884 C18.4318182,21.7639535 17.4376136,22.7383721 16.2159091,22.7383721 L9.50170455,22.7383721 L5.40256818,26.7863372 C5.26429545,26.922093 5.07313636,27 4.87784091,27 C4.78093182,27 4.68609091,26.981686 4.59627273,26.9453488 C4.31884091,26.8334302 4.1395,26.5706395 4.1395,26.2758721 L4.1395,22.7383721 L3.21590909,22.7383721 C1.99420455,22.7383721 1,21.7639535 1,20.5659884 L1,12.3119186 C1,11.1139535 1.99420455,10.1395349 3.21590909,10.1395349 L7.20454545,10.1395349 Z M24.7840909,2 C26.0057955,2 27,2.9744186 27,4.17238372 L27,12.4264535 C27,13.6244186 26.0057955,14.5988372 24.7840909,14.5988372 L23.8605,14.5988372 L23.8605,18.1363372 C23.8605,18.430814 23.6808636,18.6938953 23.4031364,18.8061047 C23.3130227,18.8421512 23.2187727,18.8604651 23.1221591,18.8604651 C22.9268636,18.8604651 22.7357045,18.7825581 22.5980227,18.647093 L18.4982955,14.5988372 L11.7840909,14.5988372 C10.5623864,14.5988372 9.56818182,13.6244186 9.56818182,12.4264535 L9.56818182,4.17238372 C9.56818182,2.9744186 10.5623864,2 11.7840909,2 L24.7840909,2 Z M22.1480992,7.07399535 L22.0773956,7.07587231 C21.3985657,7.11200441 20.858843,7.66527291 20.858843,8.34249429 C20.858843,9.01971568 21.3985657,9.57298417 22.0773956,9.60911627 L22.1480992,9.61099323 L22.2188372,9.60911627 C22.8745582,9.57423011 23.3999907,9.05725722 23.4354477,8.41209339 L23.4373554,8.34249429 L23.4354477,8.27289519 C23.3987243,7.6046898 22.8364024,7.07399535 22.1480992,7.07399535 Z M18.2803306,7.07399535 L18.2095926,7.07587231 C17.5304529,7.11200441 16.9910744,7.66527291 16.9910744,8.34249429 C16.9910744,9.01971568 17.5304529,9.57298417 18.2095926,9.60911627 L18.2803306,9.61099323 L18.3510686,9.60911627 C19.0067896,9.57423011 19.5322221,9.05725722 19.5676791,8.41209339 L19.5695868,8.34249429 L19.5676791,8.27289519 C19.5309557,7.6046898 18.9686338,7.07399535 18.2803306,7.07399535 Z M14.412562,7.07399535 L14.341824,7.07587231 C13.6626843,7.11200441 13.1233058,7.66527291 13.1233058,8.34249429 C13.1233058,9.01971568 13.6626843,9.57298417 14.341824,9.60911627 L14.412562,9.61099323 L14.4833,9.60911627 C15.139021,9.57423011 15.6644535,9.05725722 15.6999105,8.41209339 L15.7018182,8.34249429 L15.6999105,8.27289519 C15.6631872,7.6046898 15.1008652,7.07399535 14.412562,7.07399535 Z" id="Icon-/-Bold-/-Communication-/-Community"></path>
                </g>
            </g>
        </g>
    </g>
</svg>